<svg width="42" height="39" viewBox="0 0 42 39" fill="none" xmlns="http://www.w3.org/2000/svg">
<path d="M20.58 7.37878C19.2671 7.37928 17.9672 7.62056 16.7549 8.08876C15.5427 8.55695 14.4419 9.24286 13.5159 10.1071C12.5899 10.9713 11.8568 11.9969 11.3587 13.1249C10.8606 14.2529 10.6073 15.4612 10.6134 16.6803C10.6134 23.1075 17.7534 29.0004 19.95 30.5604C20.1344 30.7018 20.3661 30.7791 20.6052 30.7791C20.8443 30.7791 21.076 30.7018 21.2604 30.5604C23.4612 28.9536 30.5424 23.1075 30.5424 16.6803C30.5485 15.4615 30.2953 14.2536 29.7975 13.1258C29.2997 11.998 28.5669 10.9727 27.6414 10.1085C26.7158 9.24429 25.6155 8.55831 24.4038 8.08988C23.192 7.62145 21.8926 7.3798 20.58 7.37878ZM20.58 20.5257C19.7493 20.5257 18.9373 20.297 18.2466 19.8684C17.5559 19.4399 17.0176 18.8308 16.6997 18.1181C16.3818 17.4055 16.2986 16.6214 16.4607 15.8648C16.6227 15.1083 17.0228 14.4134 17.6101 13.868C18.1975 13.3225 18.9459 12.9511 19.7606 12.8006C20.5753 12.6501 21.4198 12.7274 22.1873 13.0226C22.9547 13.3177 23.6107 13.8176 24.0722 14.459C24.5337 15.1003 24.78 15.8543 24.78 16.6257C24.78 17.66 24.3375 18.652 23.5498 19.3834C22.7622 20.1148 21.6939 20.5257 20.58 20.5257Z" fill="black"/>
</svg>
