<svg width="22" height="25" viewBox="0 0 22 25" fill="none" xmlns="http://www.w3.org/2000/svg">
<path d="M3.02288 4.44569C3.26542 4.44569 3.45856 4.22621 3.45856 3.95059V0.4951C3.45856 0.219477 3.26542 0 3.02288 0C2.78033 0 2.58719 0.219477 2.58719 0.4951V3.94549C2.58719 4.22621 2.7938 4.44569 3.02288 4.44569Z" fill="black"/>
<path d="M6.37362 4.44569C6.61616 4.44569 6.8093 4.22621 6.8093 3.95059V0.4951C6.8093 0.219477 6.61616 0 6.37362 0C6.13107 0 5.93793 0.219477 5.93793 0.4951V3.94549C5.93793 4.22621 6.13107 4.44569 6.37362 4.44569Z" fill="black"/>
<path d="M15.1772 4.44569C15.4198 4.44569 15.6129 4.22621 15.6129 3.95059V0.4951C15.6129 0.219477 15.4198 0 15.1772 0C14.9347 0 14.7415 0.219477 14.7415 0.4951V3.94549C14.7415 4.22621 14.9302 4.44569 15.1772 4.44569Z" fill="black"/>
<path d="M18.528 4.44569C18.7705 4.44569 18.9637 4.22621 18.9637 3.95059V0.4951C18.9637 0.219477 18.7705 0 18.528 0C18.2854 0 18.0923 0.219477 18.0923 0.4951V3.94549C18.0923 4.22621 18.2854 4.44569 18.528 4.44569Z" fill="black"/>
<path d="M19.8395 2.22034V3.94553C19.8395 4.7775 19.2466 5.43594 18.528 5.43594C17.7958 5.43594 17.2164 4.76219 17.2164 3.94553V2.22034H16.5022V3.94553C16.5022 4.7775 15.9093 5.43594 15.1907 5.43594C14.4765 5.43594 13.8791 4.76219 13.8791 3.94553V2.22034H7.68518V3.94553C7.68518 4.7775 7.09228 5.43594 6.37362 5.43594C5.65496 5.43594 5.06207 4.76219 5.06207 3.94553V2.22034H4.3479V3.94553C4.3479 4.7775 3.755 5.43594 3.03634 5.43594C2.31768 5.43594 1.72479 4.76219 1.72479 3.94553V2.22034H0V6.94165H21.5643V2.22034H19.8395Z" fill="black"/>
<path d="M0 24.9999H21.5643V7.95728H0V24.9999ZM16.8346 10.295H18.2315C18.4741 10.295 18.6672 10.5144 18.6672 10.7901C18.6672 11.0657 18.4741 11.2852 18.2315 11.2852H16.8346C16.5921 11.2852 16.3989 11.0657 16.3989 10.7901C16.3989 10.5144 16.5921 10.295 16.8346 10.295ZM16.8346 15.4757H18.2315C18.4741 15.4757 18.6672 15.6951 18.6672 15.9707C18.6672 16.2464 18.4741 16.4659 18.2315 16.4659H16.8346C16.5921 16.4659 16.3989 16.2464 16.3989 15.9707C16.3989 15.6951 16.5921 15.4757 16.8346 15.4757ZM16.8346 20.6563H18.2315C18.4741 20.6563 18.6672 20.8758 18.6672 21.1514C18.6672 21.4271 18.4741 21.6465 18.2315 21.6465H16.8346C16.5921 21.6465 16.3989 21.4271 16.3989 21.1514C16.3989 20.8962 16.5921 20.6563 16.8346 20.6563ZM12.3295 10.295H13.7264C13.969 10.295 14.1621 10.5144 14.1621 10.7901C14.1621 11.0657 13.969 11.2852 13.7264 11.2852H12.3295C12.087 11.2852 11.8938 11.0657 11.8938 10.7901C11.8938 10.5144 12.087 10.295 12.3295 10.295ZM12.3295 15.4757H13.7264C13.969 15.4757 14.1621 15.6951 14.1621 15.9707C14.1621 16.2464 13.969 16.4659 13.7264 16.4659H12.3295C12.087 16.4659 11.8938 16.2464 11.8938 15.9707C11.8938 15.6951 12.087 15.4757 12.3295 15.4757ZM12.3295 20.6563H13.7264C13.969 20.6563 14.1621 20.8758 14.1621 21.1514C14.1621 21.4271 13.969 21.6465 13.7264 21.6465H12.3295C12.087 21.6465 11.8938 21.4271 11.8938 21.1514C11.8938 20.8962 12.087 20.6563 12.3295 20.6563ZM7.82442 10.295H9.22131C9.46386 10.295 9.657 10.5144 9.657 10.7901C9.657 11.0657 9.46386 11.2852 9.22131 11.2852H7.82442C7.58187 11.2852 7.38873 11.0657 7.38873 10.7901C7.38873 10.5144 7.58187 10.295 7.82442 10.295ZM7.82442 15.4757H9.22131C9.46386 15.4757 9.657 15.6951 9.657 15.9707C9.657 16.2464 9.46386 16.4659 9.22131 16.4659H7.82442C7.58187 16.4659 7.38873 16.2464 7.38873 15.9707C7.38873 15.6951 7.58187 15.4757 7.82442 15.4757ZM7.82442 20.6563H9.22131C9.46386 20.6563 9.657 20.8758 9.657 21.1514C9.657 21.4271 9.46386 21.6465 9.22131 21.6465H7.82442C7.58187 21.6465 7.38873 21.4271 7.38873 21.1514C7.38873 20.8962 7.58187 20.6563 7.82442 20.6563ZM3.31931 10.295H4.71621C4.95876 10.295 5.1519 10.5144 5.1519 10.7901C5.1519 11.0657 4.95876 11.2852 4.71621 11.2852H3.31931C3.07677 11.2852 2.88363 11.0657 2.88363 10.7901C2.88363 10.5144 3.07677 10.295 3.31931 10.295ZM3.31931 15.4757H4.71621C4.95876 15.4757 5.1519 15.6951 5.1519 15.9707C5.1519 16.2464 4.95876 16.4659 4.71621 16.4659H3.31931C3.07677 16.4659 2.88363 16.2464 2.88363 15.9707C2.88363 15.6951 3.07677 15.4757 3.31931 15.4757ZM3.31931 20.6563H4.71621C4.95876 20.6563 5.1519 20.8758 5.1519 21.1514C5.1519 21.4271 4.95876 21.6465 4.71621 21.6465H3.31931C3.07677 21.6465 2.88363 21.4271 2.88363 21.1514C2.88363 20.8962 3.07677 20.6563 3.31931 20.6563Z" fill="black"/>
</svg>
