<svg width="34" height="36" viewBox="0 0 34 36" fill="none" xmlns="http://www.w3.org/2000/svg">
<path d="M21.9783 10.494C21.9783 10.494 23.0649 15.3404 23.2394 14.981C23.9656 13.4853 24.2713 13.4386 23.9655 8.8581C23.6286 3.81024 17.8891 3.57662 15.8255 3.10915C12.3927 2.33158 12.6153 5.96018 12.3478 6.05373C7.99108 9.79298 10.8191 14.794 10.8191 14.794C10.8191 14.794 11.9274 7.9701 14.1821 8.11028C18.4241 11.1017 21.9783 10.494 21.9783 10.494Z" fill="black"/>
<path fill-rule="evenodd" clip-rule="evenodd" d="M11.0751 22.2088C10.9441 22.6767 10.9353 23.2363 11.1314 23.9046C11.1979 23.8979 11.2653 23.8945 11.3333 23.8945C12.507 23.8945 13.4583 24.9094 13.4583 26.1612C13.4583 27.413 12.507 28.4278 11.3333 28.4278C10.1597 28.4278 9.20833 27.413 9.20833 26.1612C9.20833 25.53 9.45023 24.959 9.84052 24.5481C9.5144 23.5613 9.47955 22.6304 9.71677 21.7826C9.72202 21.7639 9.7274 21.7453 9.73292 21.7267C6.759 22.8532 4.25 24.648 4.25 27.1055V32.25H29.75V27.1055C29.75 24.67 27.2858 22.8854 24.347 21.7571C24.4915 22.1924 24.5737 22.6557 24.5892 23.1445H24.75C24.9131 23.1445 25.0712 23.2042 25.1977 23.3133L26.656 24.5725C26.821 24.715 26.9167 24.9284 26.9167 25.1538V28.4278C26.9167 28.8421 26.5995 29.1778 26.2083 29.1778H24.75V27.6778H25.5V25.5099L24.4978 24.6445H24.4407C24.4342 24.6741 24.4274 24.7037 24.4205 24.7333L24.0823 24.6445H22.9606L21.9583 25.5099V27.6778H22.7083V29.1778H21.25C20.8588 29.1778 20.5417 28.8421 20.5417 28.4278V25.1538C20.5417 24.9284 20.6374 24.715 20.8023 24.5725L22.2606 23.3133C22.3871 23.2042 22.5452 23.1445 22.7083 23.1445H23.1714C23.1539 22.7602 23.0777 22.4165 22.9581 22.1089C22.8148 21.7404 22.601 21.4027 22.3226 21.0976C22.2298 21.0722 22.137 21.0475 22.0443 21.0234C21.6882 20.9307 21.3229 21.1203 21.1612 21.4711H18.2824C17.6529 21.4713 17.3325 21.4713 17.0176 21.4713H17.0176C16.691 21.4712 16.3704 21.4712 15.7174 21.4714L12.8388 21.4711C12.6771 21.1203 12.3118 20.9307 11.9557 21.0234C11.8763 21.044 11.7969 21.0652 11.7175 21.0867C11.4037 21.429 11.1882 21.8047 11.0751 22.2088ZM12.0417 26.1612C12.0417 26.5951 11.7147 26.9278 11.3333 26.9278C10.952 26.9278 10.625 26.5951 10.625 26.1612C10.625 25.7273 10.952 25.3945 11.3333 25.3945C11.7147 25.3945 12.0417 25.7273 12.0417 26.1612Z" fill="black"/>
</svg>
