<svg width="17" height="16" viewBox="0 0 17 16" fill="none" xmlns="http://www.w3.org/2000/svg">
<path fill-rule="evenodd" clip-rule="evenodd" d="M4.95834 2C4.77048 2 4.59031 2.07024 4.45747 2.19526C4.32463 2.32029 4.25001 2.48986 4.25001 2.66667V3.44667C3.83525 3.5844 3.47611 3.83983 3.22207 4.17773C2.96803 4.51564 2.8316 4.91939 2.8316 5.33333C2.8316 5.74728 2.96803 6.15103 3.22207 6.48893C3.47611 6.82684 3.83525 7.08227 4.25001 7.22V13.3333C4.25001 13.5101 4.32463 13.6797 4.45747 13.8047C4.59031 13.9298 4.77048 14 4.95834 14C5.1462 14 5.32637 13.9298 5.45921 13.8047C5.59205 13.6797 5.66667 13.5101 5.66667 13.3333V7.22C6.08143 7.08227 6.44057 6.82684 6.69461 6.48893C6.94865 6.15103 7.08508 5.74728 7.08508 5.33333C7.08508 4.91939 6.94865 4.51564 6.69461 4.17773C6.44057 3.83983 6.08143 3.5844 5.66667 3.44667V2.66667C5.66667 2.48986 5.59205 2.32029 5.45921 2.19526C5.32637 2.07024 5.1462 2 4.95834 2ZM5.66667 5.33333C5.66667 5.51014 5.59205 5.67971 5.45921 5.80474C5.32637 5.92976 5.1462 6 4.95834 6C4.77048 6 4.59031 5.92976 4.45747 5.80474C4.32463 5.67971 4.25001 5.51014 4.25001 5.33333C4.25001 5.15652 4.32463 4.98695 4.45747 4.86193C4.59031 4.7369 4.77048 4.66667 4.95834 4.66667C5.1462 4.66667 5.32637 4.7369 5.45921 4.86193C5.59205 4.98695 5.66667 5.15652 5.66667 5.33333ZM12.0417 2C11.8538 2 11.6736 2.07024 11.5408 2.19526C11.408 2.32029 11.3333 2.48986 11.3333 2.66667V8.11333C10.9186 8.25107 10.5594 8.50649 10.3054 8.8444C10.0514 9.18231 9.91494 9.58606 9.91494 10C9.91494 10.4139 10.0514 10.8177 10.3054 11.1556C10.5594 11.4935 10.9186 11.7489 11.3333 11.8867V13.3333C11.3333 13.5101 11.408 13.6797 11.5408 13.8047C11.6736 13.9298 11.8538 14 12.0417 14C12.2295 14 12.4097 13.9298 12.5425 13.8047C12.6754 13.6797 12.75 13.5101 12.75 13.3333V11.8867C13.1648 11.7489 13.5239 11.4935 13.7779 11.1556C14.032 10.8177 14.1684 10.4139 14.1684 10C14.1684 9.58606 14.032 9.18231 13.7779 8.8444C13.5239 8.50649 13.1648 8.25107 12.75 8.11333V2.66667C12.75 2.48986 12.6754 2.32029 12.5425 2.19526C12.4097 2.07024 12.2295 2 12.0417 2ZM12.75 10C12.75 10.1768 12.6754 10.3464 12.5425 10.4714C12.4097 10.5964 12.2295 10.6667 12.0417 10.6667C11.8538 10.6667 11.6736 10.5964 11.5408 10.4714C11.408 10.3464 11.3333 10.1768 11.3333 10C11.3333 9.82319 11.408 9.65362 11.5408 9.5286C11.6736 9.40357 11.8538 9.33333 12.0417 9.33333C12.2295 9.33333 12.4097 9.40357 12.5425 9.5286C12.6754 9.65362 12.75 9.82319 12.75 10Z" fill="#4E4D4D"/>
</svg>
