<svg width="32" height="32" viewBox="0 0 32 32" fill="none" xmlns="http://www.w3.org/2000/svg">
<path d="M24.402 6.54297C24.3567 6.54288 24.3116 6.54893 24.268 6.56097L19.496 7.84397C19.4325 7.86104 19.373 7.89045 19.3209 7.93052C19.2687 7.97059 19.225 8.02054 19.1922 8.07751C19.1594 8.13448 19.1381 8.19735 19.1296 8.26255C19.121 8.32774 19.1254 8.39398 19.1425 8.45747C19.1596 8.52096 19.189 8.58047 19.2291 8.6326C19.2691 8.68473 19.3191 8.72845 19.376 8.76128C19.433 8.7941 19.4959 8.81539 19.5611 8.82391C19.6263 8.83244 19.6925 8.82804 19.756 8.81097L23.361 7.83997L20.101 13.482C18.283 12.713 16.14 13.35 15.145 15.074C14.065 16.944 14.752 19.358 16.652 20.455C18.552 21.552 20.989 20.942 22.068 19.072C23.063 17.349 22.541 15.175 20.967 13.984L24.227 8.33997L25.187 11.945C25.2039 12.0085 25.2332 12.068 25.2732 12.1202C25.3131 12.1724 25.363 12.2162 25.4198 12.2491C25.4767 12.282 25.5395 12.3034 25.6047 12.312C25.6698 12.3207 25.736 12.3164 25.7995 12.2995C25.863 12.2825 25.9225 12.2532 25.9747 12.2133C26.0269 12.1733 26.0707 12.1235 26.1036 12.0666C26.1365 12.0098 26.1579 11.947 26.1666 11.8818C26.1752 11.8167 26.1709 11.7505 26.154 11.687L24.881 6.91397C24.8528 6.80823 24.7906 6.71467 24.7041 6.64766C24.6176 6.58064 24.5114 6.54386 24.402 6.54297ZM8.996 9.99997C6.802 9.99997 5 11.75 5 13.908C5 15.898 6.537 17.52 8.496 17.764V22H6.52C6.38739 22 6.26021 22.0526 6.16645 22.1464C6.07268 22.2402 6.02 22.3674 6.02 22.5C6.02 22.6326 6.07268 22.7598 6.16645 22.8535C6.26021 22.9473 6.38739 23 6.52 23H8.496V25.494C8.496 25.6266 8.54868 25.7538 8.64245 25.8475C8.73621 25.9413 8.86339 25.994 8.996 25.994C9.12861 25.994 9.25578 25.9413 9.34955 25.8475C9.44332 25.7538 9.496 25.6266 9.496 25.494V23H11.469C11.6016 23 11.7288 22.9473 11.8226 22.8535C11.9163 22.7598 11.969 22.6326 11.969 22.5C11.969 22.3674 11.9163 22.2402 11.8226 22.1464C11.7288 22.0526 11.6016 22 11.469 22H9.496V17.764C11.456 17.52 12.994 15.899 12.994 13.908C12.994 11.75 11.191 9.99997 8.996 9.99997ZM8.996 11C10.664 11 11.994 12.304 11.994 13.908C11.994 15.512 10.664 16.814 8.996 16.814C7.328 16.814 6 15.512 6 13.908C6 12.304 7.328 11 8.996 11ZM18.354 14.146C18.9502 14.1131 19.5429 14.2557 20.059 14.556C21.503 15.391 22.003 17.183 21.201 18.572C20.399 19.962 18.597 20.424 17.152 19.59C15.708 18.756 15.208 16.963 16.01 15.574C16.2508 15.1595 16.5914 14.8118 17.0007 14.5624C17.4101 14.313 17.8753 14.1699 18.354 14.146Z" fill="black"/>
</svg>
