<svg width="30" height="32" viewBox="0 0 30 32" fill="none" xmlns="http://www.w3.org/2000/svg">
<path d="M18.4822 9.14284H18.1929C18.7039 8.5354 19.0179 7.73596 19.0179 6.85715C19.0179 4.96628 17.5763 3.42859 15.8036 3.42859C14.0309 3.42859 12.5893 4.96628 12.5893 6.85715C12.5893 7.73603 12.9033 8.53546 13.4143 9.14284H13.125C11.648 9.14284 10.4464 10.4245 10.4464 12V20C10.4464 20.3154 10.6859 20.5714 10.9822 20.5714H12.5893V31.4285C12.5893 31.744 12.8288 32 13.1251 32H15.8036H16.3393C17.8163 32 19.0179 30.7183 19.0179 29.1428V20.5714H20.625C20.9212 20.5714 21.1607 20.3154 21.1607 20V12C21.1607 10.4245 19.9591 9.14284 18.4822 9.14284ZM15.8036 4.5714C16.9853 4.5714 17.9464 5.59653 17.9464 6.85709C17.9464 8.11765 16.9853 9.14278 15.8036 9.14278C14.6218 9.14278 13.6607 8.11765 13.6607 6.85709C13.6607 5.59653 14.6218 4.5714 15.8036 4.5714ZM16.132 10.2857L15.8036 11.336L15.4751 10.2857H16.132ZM20.0893 19.4285H19.0178V12H17.9464V29.1428C17.9464 30.088 17.2253 30.8571 16.3392 30.8571V20.5714H15.2678V30.8571H13.6606V12H12.5892V19.4285H11.5177V12C11.5177 11.0548 12.2388 10.2857 13.1249 10.2857H14.3463L15.2956 13.3233C15.3684 13.557 15.5726 13.7142 15.8034 13.7142C16.0343 13.7142 16.2384 13.5571 16.3113 13.3233L17.2605 10.2857H18.482C19.368 10.2857 20.0892 11.0548 20.0892 12V19.4285H20.0893Z" fill="black"/>
<path d="M8.83927 0H3.48216C3.18591 0 2.94644 0.256 2.94644 0.571437V31.4286C2.94644 31.744 3.18591 32 3.48216 32H8.83933C9.13558 32 9.37506 31.744 9.37506 31.4286V0.571437C9.375 0.256 9.13552 0 8.83927 0ZM8.30355 3.42856H7.23211V4.57144H8.30355V6.85712H6.16072V8H8.30355V10.2857H7.23211V11.4286H8.30355V13.7142H6.16072V14.8571H8.30355V17.1428H7.23211V18.2857H8.30355V20.5714H6.16072V21.7143H8.30355V24H7.23211V25.1429H8.30355V27.4286H6.16072V28.5714H8.30355V30.8571H4.01783V1.14287H8.30355V3.42856Z" fill="black"/>
<path d="M11.5179 1.14282H10.4464V2.2857H11.5179V1.14282Z" fill="black"/>
<path d="M13.6607 1.14282H12.5893V2.2857H13.6607V1.14282Z" fill="black"/>
<path d="M15.8036 1.14282H14.7322V2.2857H15.8036V1.14282Z" fill="black"/>
<path d="M17.9464 1.14282H16.875V2.2857H17.9464V1.14282Z" fill="black"/>
<path d="M20.0893 1.14282H19.0178V2.2857H20.0893V1.14282Z" fill="black"/>
<path d="M22.2322 1.14282H21.1607V2.2857H22.2322V1.14282Z" fill="black"/>
<path d="M20.625 30.8572H19.5536V32.0001H20.625V30.8572Z" fill="black"/>
<path d="M22.7679 30.8572H21.6964V32.0001H22.7679V30.8572Z" fill="black"/>
<path d="M24.9107 30.8572H23.8393V32.0001H24.9107V30.8572Z" fill="black"/>
<path d="M27.0536 30.8572H25.9822V32.0001H27.0536V30.8572Z" fill="black"/>
</svg>
