<svg width="24" height="24" viewBox="0 0 24 24" fill="none" xmlns="http://www.w3.org/2000/svg">
<path d="M8.29788 7.12575V5.23404C8.29788 3.19266 9.95862 1.53191 12 1.53191C14.0414 1.53191 15.7021 3.19266 15.7021 5.23404V7.12575C15.7105 7.12928 15.7189 7.13249 15.7273 7.13602C16.2557 7.35947 16.7586 7.62812 17.234 7.93894V5.23404C17.234 2.34797 14.8861 0 12 0C9.11393 0 6.76596 2.34797 6.76596 5.23404V7.93889C7.24142 7.62812 7.74439 7.35947 8.2727 7.13597C8.28108 7.13249 8.2895 7.12928 8.29788 7.12575Z" fill="black"/>
<path d="M12 7.91489C7.55821 7.91489 3.95744 11.5157 3.95744 15.9574C3.95744 20.3992 7.55821 24 12 24C16.4418 24 20.0425 20.3992 20.0425 15.9574C20.0425 11.5157 16.4418 7.91489 12 7.91489ZM12.766 16.3689V19.1037H11.234V16.3689C10.6303 16.082 10.2128 15.4668 10.2128 14.7539C10.2128 13.7669 11.0129 12.9667 12 12.9667C12.9871 12.9667 13.7872 13.7669 13.7872 14.7539C13.7872 15.4668 13.3697 16.0821 12.766 16.3689Z" fill="black"/>
</svg>
