<svg width="32" height="32" viewBox="0 0 32 32" fill="none" xmlns="http://www.w3.org/2000/svg">
<path d="M25 2H16V4H25C25.2652 4 25.5196 4.10536 25.7071 4.29289C25.8946 4.48043 26 4.73478 26 5V27C26 27.2652 25.8946 27.5196 25.7071 27.7071C25.5196 27.8946 25.2652 28 25 28H16V30H25C25.7956 30 26.5587 29.6839 27.1213 29.1213C27.6839 28.5587 28 27.7956 28 27V5C28 4.20435 27.6839 3.44129 27.1213 2.87868C26.5587 2.31607 25.7956 2 25 2Z" fill="black"/>
<path d="M21.58 17V15H7.00001L11 11L9.58001 9.55005L4.58001 14.55C4.39406 14.7358 4.24654 14.9564 4.14589 15.1992C4.04524 15.442 3.99344 15.7022 3.99344 15.965C3.99344 16.2279 4.04524 16.4881 4.14589 16.7309C4.24654 16.9737 4.39406 17.1943 4.58001 17.38L9.58001 22.38L11 21L7.00001 17H21.58Z" fill="black"/>
</svg>
