<svg width="79" height="77" viewBox="0 0 79 77" fill="none" xmlns="http://www.w3.org/2000/svg">
<path d="M40.2021 43.5285C40.2021 44.5738 39.3328 45.4211 38.2604 45.4211H24.9453C23.8728 45.4211 23.0035 44.5738 23.0035 43.5285C23.0035 42.4832 23.8728 41.6359 24.9453 41.6359H38.2604C39.3328 41.6359 40.2021 42.4832 40.2021 43.5285ZM38.2604 48.8978H24.9453C23.8728 48.8978 23.0035 49.7451 23.0035 50.7904C23.0035 51.8357 23.8728 52.683 24.9453 52.683H38.2604C39.3328 52.683 40.2021 51.8357 40.2021 50.7904C40.2021 49.7451 39.3328 48.8978 38.2604 48.8978ZM24.8066 19.2219H28.1682V22.4986C28.1682 23.5439 29.0376 24.3912 30.11 24.3912C31.1824 24.3912 32.0518 23.5439 32.0518 22.4986V19.2219H35.4133C36.4858 19.2219 37.3551 18.3746 37.3551 17.3293C37.3551 16.284 36.4858 15.4367 35.4133 15.4367H32.0518V12.16C32.0518 11.1147 31.1824 10.2674 30.11 10.2674C29.0376 10.2674 28.1682 11.1147 28.1682 12.16V15.4365H24.8066C23.7342 15.4365 22.8649 16.2838 22.8649 17.3291C22.8649 18.3744 23.7342 19.2219 24.8066 19.2219ZM23.0037 36.2671C23.0037 37.3124 23.873 38.1597 24.9455 38.1597H54.0539C55.1264 38.1597 55.9957 37.3124 55.9957 36.2671C55.9957 35.2218 55.1264 34.3745 54.0539 34.3745H24.9455C23.873 34.3745 23.0037 35.2218 23.0037 36.2671ZM67.6492 14.8842V75.1074C67.6492 76.1527 66.7799 77 65.7074 77H13.2924C12.2199 77 11.3506 76.1527 11.3506 75.1074V1.89261C11.3506 0.847321 12.2199 0 13.2924 0H52.3782C52.4549 0.000378522 52.5279 0.00321743 52.6019 0.0111664C52.6042 0.0113556 52.6065 0.0119234 52.6083 0.0117342C52.6106 0.0121127 52.6125 0.012302 52.6147 0.0124912C52.617 0.0126805 52.6189 0.0128697 52.6211 0.0132483C52.623 0.0132483 52.6252 0.0136268 52.6273 0.0140053H52.6275C52.7089 0.0236576 52.7892 0.0382307 52.8679 0.0577245C52.8689 0.0579138 52.87 0.0581031 52.871 0.0584816H52.8712C53.1933 0.13835 53.4951 0.299032 53.7434 0.533715C53.7436 0.533905 53.744 0.534094 53.7442 0.534472C53.7454 0.535608 53.7465 0.536554 53.7477 0.53769C53.7483 0.538258 53.7491 0.539015 53.7496 0.539583C53.7504 0.54034 53.7512 0.541097 53.752 0.541854C53.7529 0.5428 53.7539 0.543746 53.7551 0.544693C53.7555 0.545071 53.7559 0.54545 53.7562 0.545828C53.7592 0.548667 53.7621 0.551506 53.7648 0.554156L67.0804 13.5321C67.0816 13.5335 67.083 13.5346 67.0843 13.5359C67.0847 13.5363 67.0851 13.5367 67.0855 13.5371C67.0865 13.538 67.0874 13.539 67.0884 13.5399C67.0886 13.5403 67.089 13.5405 67.0894 13.5409C67.0921 13.5435 67.0946 13.5462 67.0973 13.5488C67.0973 13.5488 67.0975 13.549 67.0977 13.5492C67.0991 13.5505 67.1003 13.5518 67.1016 13.5532C67.3337 13.7865 67.4952 14.0685 67.5799 14.3696C67.5799 14.3698 67.5799 14.3702 67.5801 14.3704C67.5805 14.3717 67.5808 14.3732 67.5812 14.3745C67.5814 14.3755 67.5816 14.3764 67.582 14.3774C67.5822 14.3783 67.5824 14.3791 67.5828 14.38C67.583 14.3812 67.5834 14.3825 67.5838 14.3838C67.5838 14.384 67.5838 14.3842 67.584 14.3844C67.6082 14.4735 67.6259 14.5646 67.6366 14.6569C67.6366 14.6577 67.6368 14.6584 67.6368 14.6592C67.6368 14.66 67.637 14.6607 67.637 14.6615C67.637 14.6628 67.6372 14.6643 67.6374 14.6656C67.6374 14.6656 67.6374 14.666 67.6374 14.6662C67.6459 14.7385 67.6498 14.8112 67.6492 14.8842ZM54.3341 12.9778H61.0196L54.3341 6.46174V12.9778ZM63.7657 16.763H52.3923C51.3199 16.763 50.4506 15.9157 50.4506 14.8704V3.78522H15.2341V73.2148H63.7657V16.763ZM54.0537 41.6359H46.6935C45.621 41.6359 44.7517 42.4832 44.7517 43.5285C44.7517 44.5738 45.621 45.4211 46.6935 45.4211H54.0537C55.1262 45.4211 55.9955 44.5738 55.9955 43.5285C55.9955 42.4832 55.1262 41.6359 54.0537 41.6359ZM54.0537 62.192H46.6935C45.621 62.192 44.7517 63.0394 44.7517 64.0847C44.7517 65.1299 45.621 65.9773 46.6935 65.9773H54.0537C55.1262 65.9773 55.9955 65.1299 55.9955 64.0847C55.9955 63.0394 55.1262 62.192 54.0537 62.192ZM54.0537 48.8978H46.6935C45.621 48.8978 44.7517 49.7451 44.7517 50.7904C44.7517 51.8357 45.621 52.683 46.6935 52.683H54.0537C55.1262 52.683 55.9955 51.8357 55.9955 50.7904C55.9955 49.7451 55.1262 48.8978 54.0537 48.8978Z" fill="black"/>
</svg>
