<svg width="28" height="30" viewBox="0 0 28 30" fill="none" xmlns="http://www.w3.org/2000/svg">
<path d="M20.7084 2.5C22.1581 2.5 23.3334 3.7592 23.3334 5.3125V24.6932C23.3334 26.2465 22.1581 27.5057 20.7084 27.5057H7.29169C5.84194 27.5057 4.66669 26.2465 4.66669 24.6932V5.3125C4.66669 3.82392 5.74604 2.60544 7.11196 2.50649L7.29169 2.5H20.7084ZM21.5834 20H6.41669V24.6932C6.41669 25.211 6.80844 25.6307 7.29169 25.6307H20.7084C21.1916 25.6307 21.5834 25.211 21.5834 24.6932V20ZM9.04319 21.875H18.9584C19.4416 21.875 19.8334 22.2947 19.8334 22.8125C19.8334 23.2871 19.5042 23.6794 19.0771 23.7414L18.9584 23.75H9.04319C8.55994 23.75 8.16819 23.3303 8.16819 22.8125C8.16819 22.3379 8.49737 21.9456 8.92446 21.8836L9.04319 21.875H18.9584H9.04319ZM20.7084 4.375H7.29169L7.17295 4.38356C6.74587 4.44564 6.41669 4.83788 6.41669 5.3125V18.125H9.33335V15.3069C9.33335 14.4979 9.90721 13.8325 10.6426 13.7525L10.7917 13.7444H17.2084C17.9634 13.7444 18.5845 14.3592 18.6592 15.1472L18.6667 15.3069V18.125H21.5834V5.3125C21.5834 4.79473 21.1916 4.375 20.7084 4.375ZM14 6.24441C15.6109 6.24441 16.9167 7.64352 16.9167 9.36941C16.9167 11.0953 15.6109 12.4944 14 12.4944C12.3892 12.4944 11.0834 11.0953 11.0834 9.36941C11.0834 7.64352 12.3892 6.24441 14 6.24441Z" fill="#212121"/>
</svg>
